<?xml version="1.0" encoding="UTF-8" standalone="no"?>
<!-- Created with Inkscape (http://www.inkscape.org/) -->

<svg
   width="71.563011mm"
   height="79.382042mm"
   viewBox="0 0 71.563011 79.382042"
   version="1.1"
   id="svg1"
   xmlns="http://www.w3.org/2000/svg"
   xmlns:svg="http://www.w3.org/2000/svg">
  <defs
     id="defs1" />
  <g
     id="layer5"
     style="display:inline"
     transform="translate(-8.1794112,-3.8518715)">
    <circle
       style="display:inline;fill:#000000;stroke-width:0.343465"
       id="path3-1"
       cx="33.913212"
       cy="21.352764"
       r="17.500893" />
    <path
       style="fill:#000000;stroke-width:0.264583"
       d="M 8.1794112,83.23391 H 61.629937 c 0,0 -0.956886,-32.73783 -10.794796,-40.286723 -9.83791,-7.548893 -22.957683,-7.622624 -32.694597,0 C 8.4036302,50.569811 8.1794112,83.23391 8.1794112,83.23391 Z"
       id="path7" />
    <path
       style="fill:#000000;stroke-width:0.264583"
       d="m 43.542891,40.863329 c 0,0 13.978273,5.512825 18.756937,1.172308 4.778664,-4.340517 -2.925861,-15.005954 0.669891,-19.929246 3.595752,-4.923292 10.990298,-5.09784 14.067703,0.167472 3.077405,5.265312 4.749251,23.851653 -1.842199,31.317387 -6.429244,7.282013 -29.642661,2.679561 -29.642661,2.679561 z"
       id="path8" />
  </g>
</svg>
