<?xml version="1.0" encoding="UTF-8" standalone="no"?>
<!-- Created with Inkscape (http://www.inkscape.org/) -->

<svg
   width="71.198349mm"
   height="67.613869mm"
   viewBox="0 0 71.198349 67.613869"
   version="1.1"
   id="svg1"
   xmlns="http://www.w3.org/2000/svg"
   xmlns:svg="http://www.w3.org/2000/svg">
  <defs
     id="defs1" />
  <g
     id="layer4"
     style="display:inline"
     transform="translate(-7.56033,-10.364117)">
    <path
       id="path6"
       style="fill:#000000;stroke-width:0.264583"
       d="m 15.239897,11.27686 v 49.851737 l 18.756994,-19.623091 14.067875,8.373649 30.414681,-35.165296 0.03514,-0.06666 c -8e-6,-2.11e-4 9e-6,-3.07e-4 0,-5.17e-4 -0.07746,-1.843081 -0.177763,-3.042216 -0.304891,-3.36982 -0.380483,-0.980499 -49.957449,-1.4326645 -62.969799,-2e-6 z m -3.59435,-0.212329 c -1.050851,0.04471 -1.241651,-0.113621 -1.931928,0.296045 -2.2088868,1.310931 -3.4652852,61.346861 0,64.477201 3.465285,3.13034 67.730183,2.562806 68.663509,0 0.888062,-2.438517 -0.05855,-3.767171 -0.01344,-3.850411 2.09e-4,-2.89e-4 2.77e-4,-7.83e-4 5.17e-4,-10e-4 l 5.17e-4,-5.16e-4 H 13.733012 V 11.193144 c 0,0.246809 -0.835973,-0.181859 -2.087465,-0.128613 z m 67.010634,8.960115 -0.0052,0.0016 L 48.064766,54.736223 33.996891,45.69233 15.239897,66.297274 v 4.013708 h 62.969799 c 0.260934,0 0.716689,-33.797122 0.446485,-50.286336 z M 78.36731,71.984782 c -8.2e-4,1.93e-4 -0.0014,6.48e-4 -0.0021,0.001 h 0.01188 c -0.0041,-0.0012 -0.0074,-0.0016 -0.0098,-0.001 z" />
  </g>
</svg>
