<?xml version="1.0" encoding="UTF-8" standalone="no"?>
<!-- Created with Inkscape (http://www.inkscape.org/) -->

<svg
   width="149.6844mm"
   height="149.6844mm"
   viewBox="0 0 149.6844 149.6844"
   version="1.1"
   id="svg1"
   xmlns="http://www.w3.org/2000/svg"
   xmlns:svg="http://www.w3.org/2000/svg">
  <defs
     id="defs1" />
  <g
     id="layer4"
     style="display:inline"
     transform="translate(-1.4211019,-1.4211019)">
    <path
       id="circle9-8"
       style="display:inline;fill:#71c837;fill-opacity:1;stroke:none;stroke-width:2.465;stroke-linejoin:round;paint-order:markers stroke fill"
       d="M 76.263045,1.4211019 A 74.842102,74.842102 0 0 0 1.4211019,76.263045 74.842102,74.842102 0 0 0 31.446143,136.20306 c -0.117376,-9.76431 0.967264,-21.0753 5.738151,-27.49238 C 46.794736,95.784143 53.052576,93.079073 53.052576,93.079073 L 51.158118,83.13136 c -8.763157,1.228256 -17.76339,-2.639954 -26.526547,-6.394442 7.806128,-5.945206 16.746418,-6.686516 25.578801,-8.526611 0,0 1.400036,-22.482256 25.579317,-22.262724 24.179281,0.219532 23.683826,18.710486 23.683826,18.710486 l 0.237195,26.999902 c 0,0 10.44264,7.521156 15.86828,18.473809 2.80723,5.6669 3.40703,17.51623 3.3321,27.63345 a 74.842102,74.842102 0 0 0 25.89092,-31.43942 74.842102,74.842102 0 0 0 5.59398,-19.783289 74.842102,74.842102 0 0 0 0.70952,-10.279476 A 74.842102,74.842102 0 0 0 76.263045,1.4211019 Z M 63.491732,59.360201 c -1.650959,0.06357 -2.745138,3.094724 -2.804997,4.823995 -0.06178,1.785054 0.864135,4.024311 2.605009,4.026111 1.740874,0.0018 3.002812,-3.037478 3.078882,-4.736662 0.07607,-1.699184 -0.97688,-3.973243 -2.717664,-4.109827 -0.0544,-0.0043 -0.107974,-0.0057 -0.16123,-0.0036 z m 12.96355,0.10697 c -1.650959,0.06357 -2.745138,3.094724 -2.804997,4.823995 -0.06178,1.785054 0.864135,4.024311 2.605009,4.026111 1.740874,0.0018 3.002812,-3.037478 3.078882,-4.736662 0.07607,-1.699184 -0.97688,-3.973759 -2.717664,-4.110343 -0.0544,-0.0043 -0.107974,-0.0052 -0.16123,-0.0031 z M 57.315881,77.447469 c -8.239117,1.787199 -16.630166,2.948946 -28.658199,0.947229 11.360852,3.277945 20.289327,2.445827 31.02653,2.605526 z m 18.710486,28.894881 c -25.017674,0.92303 -27.241489,26.25993 -26.637134,39.77173 a 74.842102,74.842102 0 0 0 26.873812,4.99143 74.842102,74.842102 0 0 0 25.386565,-4.43746 c 1.02165,-14.09274 -0.27268,-41.26102 -25.623243,-40.3257 z" />
  </g>
</svg>
