<?xml version="1.0" encoding="UTF-8" standalone="no"?>
<!-- Created with Inkscape (http://www.inkscape.org/) -->

<svg
   width="149.6844mm"
   height="138.37488mm"
   viewBox="0 0 149.6844 138.37488"
   version="1.1"
   id="svg1"
   xmlns="http://www.w3.org/2000/svg"
   xmlns:svg="http://www.w3.org/2000/svg">
  <defs
     id="defs1" />
  <g
     id="layer6"
     transform="translate(-1.4211019,-1.4211019)">
    <path
       id="circle9-5"
       style="display:inline;fill:#008033;fill-opacity:1;stroke:none;stroke-width:2.465;stroke-linejoin:round;paint-order:markers stroke fill"
       d="M 76.263045,1.4211019 A 74.842102,74.842102 0 0 0 1.4211019,76.263045 74.842102,74.842102 0 0 0 22.680269,128.51464 c -1.244489,-4.52042 -1.581971,-9.22621 -0.18035,-13.6462 5.228084,-16.4867 18.876367,-23.593908 18.876367,-23.593908 7.002846,-6.866153 5.454067,-13.049176 0.544669,-21.16925 l -22.973791,-1.65778 c -2.509073,-0.181067 -3.829875,-1.441518 -4.228683,-2.942456 l 0.253215,0.368453 26.949259,0.324011 0.710551,-2.842204 -28.044283,1.04283 c 0.03519,-2.043287 1.527219,-4.154385 3.886585,-4.477246 l 22.499918,-3.078882 c 0,0 3.572257,-16.150444 20.605461,-15.868282 17.033204,0.282162 24.299748,11.762792 22.736597,22.973792 -1.56315,11.211 -9.022741,14.876265 -8.052739,22.736597 0.475757,3.855257 2.643213,10.689405 6.394959,13.263273 17.715886,12.153902 46.753826,-10.18592 43.105376,-26.052674 0,0 16.22434,20.267578 16.78399,37.120736 A 74.842102,74.842102 0 0 0 151.10551,76.263045 74.842102,74.842102 0 0 0 76.263045,1.4211019 Z M 57.870369,48.897274 c -1.580004,-0.01663 -2.205811,2.805613 -2.331123,4.510836 -0.129355,1.760229 0.51989,4.583192 2.249991,4.618322 1.7301,0.03513 2.369343,-2.948962 2.487187,-4.618322 0.117844,-1.66936 -0.554974,-4.289528 -2.249992,-4.499984 -0.05297,-0.0066 -0.105095,-0.01032 -0.156063,-0.01085 z m -6.712251,58.628976 c 0,0 -12.621826,10.27611 -10.894943,18.47381 1.726883,8.1977 19.31554,12.65369 32.210437,13.73663 12.894897,1.08294 43.342058,-13.02608 43.342058,-13.02608 l -30.552657,-14.44769 22.737117,13.97382 c 0,0 -22.822135,9.14202 -32.447636,8.52661 -9.625501,-0.61541 -25.598882,-3.13867 -28.657682,-8.52661 -3.0588,-5.38793 4.263306,-18.71049 4.263306,-18.71049 z" />
  </g>
</svg>
