<?xml version="1.0" encoding="UTF-8" standalone="no"?>
<!-- Created with Inkscape (http://www.inkscape.org/) -->

<svg
   width="149.6844mm"
   height="139.84108mm"
   viewBox="0 0 149.6844 139.84108"
   version="1.1"
   id="svg1"
   xmlns="http://www.w3.org/2000/svg"
   xmlns:svg="http://www.w3.org/2000/svg">
  <defs
     id="defs1" />
  <g
     id="layer2"
     style="display:inline"
     transform="translate(-1.4211019,-1.4211019)">
    <path
       id="path4"
       style="display:inline;fill:#ffcc00;fill-opacity:1;stroke:none;stroke-width:2.465;stroke-linejoin:round;paint-order:markers stroke fill"
       d="M 76.263045,1.4211019 A 74.842102,74.842102 0 0 0 1.4211019,76.263045 74.842102,74.842102 0 0 0 39.162467,141.26218 C 46.682417,124.50017 58.651066,108.0747 47.842041,92.841878 34.583707,74.157324 46.077736,66.621429 48.684367,56.358317 59.332386,11.050909 64.168334,30.503427 68.68418,53.525932 l 11.842171,0.473873 c 13.361598,-53.30763944 18.375529,-5.039519 18.358569,0 -0.01696,5.039519 -2.180872,42.341907 3.4308,54.000325 5.61167,11.65841 18.06195,15.20992 18.06195,15.20992 0,0 5.16736,-18.83148 3.25406,-28.473197 -1.9133,-9.641713 -14.9304,-23.426952 -14.34951,-27.866516 0.58089,-4.439564 5.76527,-7.627497 10.52597,-7.186125 4.7607,0.441372 15.93622,16.649262 18.03404,29.842106 1.27431,8.01388 -1.44658,23.420612 -3.7791,34.281632 A 74.842102,74.842102 0 0 0 151.10551,76.263045 74.842102,74.842102 0 0 0 76.263045,1.4211019 Z M 58.035217,65.417712 c -0.141718,-0.005 -0.283898,-0.0033 -0.42633,0.0057 -4.55784,0.288615 -9.827307,7.787638 -9.827307,7.787638 0,0 5.789046,3.052815 10.015926,3.348116 0.954516,0.06669 1.917812,-0.11506 2.837036,-0.436666 a 2.9605265,4.8552632 0 0 1 -2.253093,-4.714441 2.9605265,4.8552632 0 0 1 2.821534,-4.85035 c -0.993229,-0.65168 -2.067924,-1.100826 -3.167766,-1.139982 z m 23.703463,0.408244 c -4.393279,0.156405 -8.385535,6.856946 -8.385535,6.856946 0,0 4.396371,4.579794 8.623247,4.284493 1.045931,-0.07307 2.187589,-0.314962 3.313492,-0.637687 a 2.9605265,4.8552632 0 0 1 -2.744535,-4.842082 2.9605265,4.8552632 0 0 1 2.358512,-4.754232 c -0.909943,-0.506474 -1.838368,-0.844732 -2.73885,-0.901753 -0.142433,-0.009 -0.284612,-0.01073 -0.426331,-0.0057 z m -17.857308,3.0856 a 2.9605265,4.8552632 0 0 1 0.421163,2.496488 2.9605265,4.8552632 0 0 1 -0.737939,3.207557 c 1.6985,-1.134259 2.856156,-2.340426 2.856156,-2.340426 0,0 -0.99545,-1.670966 -2.53938,-3.363619 z m 24.225395,0.255798 a 2.9605265,4.8552632 0 0 1 0.359668,2.320272 2.9605265,4.8552632 0 0 1 -1.65623,4.35839 c 2.813528,-0.977496 5.182629,-2.226737 5.182629,-2.226737 0,0 -1.642134,-2.336974 -3.886067,-4.451925 z m -23.685893,11.83287 c 1.453817,0.592689 3.442364,1.886089 4.438489,3.870048 -1.999037,3.160604 -7.407679,2.819584 -11.654586,2.85719 2.17768,0.601162 3.6061,2.676751 12.189954,-0.687814 8.83348,3.017451 10.821617,0.260797 11.96051,-0.237194 -3.092001,0.295113 -9.65004,1.349682 -12.251965,-2.155941 0.406487,-2.169354 2.617878,-2.533456 4.317565,-3.409611 z" />
  </g>
</svg>
