<?xml version="1.0" encoding="UTF-8" standalone="no"?>
<!-- Created with Inkscape (http://www.inkscape.org/) -->

<svg
   width="149.6844mm"
   height="143.13493mm"
   viewBox="0 0 149.6844 143.13493"
   version="1.1"
   id="svg1"
   xmlns="http://www.w3.org/2000/svg"
   xmlns:svg="http://www.w3.org/2000/svg">
  <defs
     id="defs1" />
  <g
     id="layer3"
     style="display:inline"
     transform="translate(-1.4211019,-1.4211019)">
    <path
       id="circle9-4"
       style="display:inline;fill:#800080;fill-opacity:1;stroke:none;stroke-width:2.465;stroke-linejoin:round;paint-order:markers stroke fill"
       d="M 76.263045,1.4211019 C 34.929018,1.4211897 1.4211897,34.929018 1.4211019,76.263045 1.4210517,105.75205 18.737301,132.49227 45.645793,144.55603 l 13.97434,-71.537748 c 0,0 -23.438539,6.588869 -33.494596,2.34456 C 16.069481,71.118532 13.686871,56.513195 24.017819,48.239121 26.570755,46.194472 39.672847,34.75128 53.756925,31.812528 45.327419,24.776688 48.024319,21.098857 51.158118,20.842139 c 2.544201,-0.20842 10.659504,7.787545 16.086873,9.852111 5.427369,2.064566 11.068795,2.205724 15.15153,6.149496 16.753538,16.183304 9.065053,27.522122 19.426719,55.266394 4.20204,11.25132 9.56792,20.48287 14.46269,27.48256 6.23574,-17.17998 -1.7257,-31.154287 6.37377,-39.627555 10.16275,-10.631777 18.17806,-9.908054 20.42304,-6.358268 2.24498,3.549787 -6.6114,22.774922 -11.6241,27.342003 0,0 8.64786,-4.81652 8.07548,0.92139 -0.57238,5.7379 -6.36636,11.6911 -10.8412,15.53652 1.61969,3.33852 6.7459,-2.66052 7.29051,2.05724 0.0649,0.56257 0.0183,1.28347 -0.14986,2.10581 9.90737,-13.02629 15.27187,-28.94097 15.27194,-45.306795 C 151.10542,34.928814 117.59728,1.4209014 76.263045,1.4211019 Z M 39.953634,39.26582 c -1.841642,0.04829 -3.392308,3.374672 -3.434933,5.587256 -0.044,2.283957 1.338735,5.973229 3.423564,5.788794 2.084829,-0.184435 2.890036,-3.913868 2.853056,-5.9955 -0.03698,-2.081631 -0.743762,-5.201669 -2.662887,-5.374865 -0.05997,-0.0054 -0.119393,-0.0072 -0.1788,-0.0057 z m 13.863753,0.517281 c -1.806909,0.04729 -3.328516,3.304436 -3.370337,5.470984 -0.04317,2.236436 1.313459,5.848468 3.358968,5.667871 2.04551,-0.180598 2.835592,-3.832122 2.799312,-5.870442 -0.03628,-2.038321 -0.729312,-5.093652 -2.612243,-5.263245 -0.05884,-0.0053 -0.117413,-0.0067 -0.1757,-0.0052 z M 89.28964,50.920923 c 0,0 3.522428,25.666931 0.947229,32.447632 -2.575199,6.780701 -3.772596,7.670699 -7.578865,8.052738 -3.806269,0.382039 -5.876683,-0.456657 -9.710519,-6.868831 -3.833836,-6.412174 -4.026627,-32.683793 -4.026627,-32.683793 0,0 -3.069257,26.744586 0.473873,34.342089 3.54313,7.597503 6.690005,10.674415 12.078849,10.42107 5.388844,-0.253345 8.640648,-3.885036 11.368298,-11.842171 C 95.569528,76.832522 89.28964,50.920923 89.28964,50.920923 Z M 31.689022,58.113249 20.7269,58.28068 c -0.267326,1.116484 -0.843845,2.734961 0.22841,3.851445 5.130094,-0.109041 3.6586,2.265994 4.426603,3.950663 0.238296,1.794445 -0.464751,7.746422 5.516976,8.8191 6.196399,1.111174 17.962211,-8.69611 17.962211,-8.69611 0,0 -9.268917,6.929092 -16.706474,6.645072 -5.822371,-0.222341 -5.249374,-5.414231 -5.860107,-6.735506 0.71618,-3.4198 1.984171,-4.352183 5.242574,-4.150651 0.907719,-1.12685 0.403391,-2.512083 0.151929,-3.851444 z" />
  </g>
</svg>
