<?xml version="1.0" encoding="UTF-8" standalone="no"?>
<!-- Created with Inkscape (http://www.inkscape.org/) -->

<svg
   width="149.6844mm"
   height="138.92123mm"
   viewBox="0 0 149.6844 138.92124"
   version="1.1"
   id="svg1"
   xmlns="http://www.w3.org/2000/svg"
   xmlns:svg="http://www.w3.org/2000/svg">
  <defs
     id="defs1" />
  <g
     id="layer1"
     transform="translate(-8.7629767,-9.7103444)"
     style="display:inline">
    <path
       id="circle9-1"
       style="display:inline;fill:#ff6600;fill-opacity:1;stroke:none;stroke-width:2.465;stroke-linejoin:round;paint-order:markers stroke fill"
       d="m 83.605437,9.7103444 a 74.842102,74.842102 0 0 0 -9.184453,0.6020306 c -0.56655,0.06946 -1.121054,0.17479 -1.683618,0.256832 a 74.842102,74.842102 0 0 0 -7.573181,1.506368 c -0.529785,0.134479 -1.061773,0.262533 -1.586983,0.408243 a 74.842102,74.842102 0 0 0 -16.992761,7.056417 c -0.391911,0.223681 -0.767532,0.471249 -1.154969,0.701766 a 74.842102,74.842102 0 0 0 -6.484358,4.332552 c -0.486077,0.362551 -0.979368,0.715363 -1.456242,1.08934 A 74.842102,74.842102 0 0 0 24.716525,38.43624 c -0.373976,0.476873 -0.726788,0.970164 -1.089339,1.456241 a 74.842102,74.842102 0 0 0 -4.332552,6.484359 c -0.230518,0.387437 -0.478086,0.763057 -0.701766,1.154968 A 74.842102,74.842102 0 0 0 11.536451,64.52457 c -0.145711,0.525209 -0.273764,1.057198 -0.408244,1.586983 A 74.842102,74.842102 0 0 0 9.621839,73.684734 C 9.539798,74.247298 9.4344623,74.801802 9.3650071,75.368352 A 74.842102,74.842102 0 0 0 8.7629767,84.552804 74.842102,74.842102 0 0 0 44.937513,148.63158 L 53.995875,90.319378 C -7.5855156,82.367251 44.724477,47.287992 56.478927,48.958595 59.295978,22.676111 63.028142,38.810843 67.058643,47.111679 l 8.373649,0.334863 c 5.609958,-23.248088 7.889283,-6.899154 9.713102,-0.0026 1.823819,6.896586 12.464873,94.128098 12.464873,94.128098 6.789783,-19.84797 1.131627,-38.35177 -1.53479,-66.174765 -3.914422,-40.845424 44.619783,-35.658722 53.102703,0.703316 2.53145,10.851071 -9.08223,47.346739 -16.78296,65.204799 a 74.842102,74.842102 0 0 0 6.35827,-6.18463 c 0.40572,-0.44247 0.75969,-0.92331 1.15394,-1.3746 a 74.842102,74.842102 0 0 0 4.3372,-5.40432 c 0.50557,-0.70024 0.96091,-1.4314 1.44126,-2.14767 a 74.842102,74.842102 0 0 0 3.23752,-5.24102 c 0.46172,-0.82865 0.89323,-1.67202 1.32292,-2.51716 a 74.842102,74.842102 0 0 0 2.4908,-5.42499 c 0.36176,-0.87874 0.72133,-1.75764 1.04955,-2.64997 a 74.842102,74.842102 0 0 0 1.86501,-5.87561 c 0.22903,-0.82751 0.4866,-1.64539 0.68729,-2.4815 a 74.842102,74.842102 0 0 0 1.27899,-6.852295 c 0.0831,-0.580042 0.21414,-1.148819 0.28371,-1.731677 a 74.842102,74.842102 0 0 0 0.5457,-8.86716 74.842102,74.842102 0 0 0 -0.60203,-9.183935 c -0.0695,-0.567019 -0.17471,-1.122143 -0.25683,-1.685169 a 74.842102,74.842102 0 0 0 -1.50637,-7.572147 c -0.13452,-0.529944 -0.26249,-1.062134 -0.40824,-1.5875 a 74.842102,74.842102 0 0 0 -7.05332,-16.987594 c -0.22619,-0.396375 -0.47685,-0.776088 -0.71003,-1.167887 a 74.842102,74.842102 0 0 0 -4.32481,-6.472473 c -0.36358,-0.487528 -0.71684,-0.982623 -1.09192,-1.460893 A 74.842102,74.842102 0 0 0 129.72355,25.665443 c -0.47907,-0.375728 -0.97459,-0.730311 -1.46296,-1.094507 a 74.842102,74.842102 0 0 0 -6.47557,-4.326351 c -0.38913,-0.231561 -0.76649,-0.480202 -1.16014,-0.704866 A 74.842102,74.842102 0 0 0 103.6316,12.483302 c -0.524,-0.145364 -1.0548,-0.273026 -1.58336,-0.407211 a 74.842102,74.842102 0 0 0 -7.574216,-1.506884 c -0.562858,-0.08209 -1.117803,-0.187338 -1.684652,-0.256832 A 74.842102,74.842102 0 0 0 83.605437,9.7103444 Z M 53.395911,59.751218 c -1.629036,0.04787 -2.896605,2.626859 -2.782776,4.203877 0.113829,1.577018 1.457884,3.397757 2.960543,3.316077 1.502659,-0.08168 2.682497,-2.177131 2.664437,-3.730522 -0.01806,-1.553391 -1.213168,-3.837302 -2.842204,-3.789432 z m 14.174329,0.476973 c -1.629036,0.04787 -2.896605,2.62686 -2.782776,4.203878 0.113829,1.577018 1.457884,3.39724 2.960543,3.31556 1.502659,-0.08168 2.682497,-2.176614 2.664437,-3.730005 -0.01806,-1.553391 -1.213168,-3.837303 -2.842204,-3.789433 z M 28.227938,73.722975 c 3.57476,1.385967 4.571354,3.201462 5.526795,5.023982 0.191593,-2.416294 2.159631,-3.944068 5.023983,-5.023982 z m 106.400222,1.898592 c -3.01799,0.16688 -5.61984,0.95384 -9.76839,6.977352 -4.14855,6.023512 1.35332,34.045551 1.90324,50.638251 0.26224,7.91261 -4.62349,14.68954 -4.62349,14.68954 0.16275,0.11625 0.41595,0.24646 0.73432,0.33848 a 74.842102,74.842102 0 0 0 4.98936,-3.35896 c 1.13802,-2.38168 2.07428,-6.28953 2.38538,-12.59097 0.59307,-12.01283 -4.63515,-40.058187 -1.03456,-46.366675 3.60059,-6.308488 8.74958,-4.639712 11.05307,-2.34456 2.30349,2.295152 0.47355,7.098665 -1.67483,8.038786 -2.14838,0.940121 -5.02398,-3.014803 -5.02398,-3.014803 0,0 0.30974,6.185269 2.67942,7.369059 2.36968,1.18379 5.54334,0.858542 7.70392,-2.345076 2.16058,-3.203618 3.14993,-11.8006 -1.33997,-15.072465 -2.24495,-1.635933 -4.9655,-3.124839 -7.98349,-2.957959 z" />
  </g>
</svg>
