<?xml version="1.0" encoding="UTF-8" standalone="no"?>
<!-- Created with Inkscape (http://www.inkscape.org/) -->

<svg
   width="149.10822mm"
   height="149.6844mm"
   viewBox="0 0 149.10822 149.6844"
   version="1.1"
   id="svg1"
   xmlns="http://www.w3.org/2000/svg"
   xmlns:svg="http://www.w3.org/2000/svg">
  <defs
     id="defs1" />
  <g
     id="layer5"
     style="display:inline"
     transform="translate(-1.4211019,-1.4211019)">
    <path
       id="circle9-2"
       style="display:inline;fill:#2a7fff;fill-opacity:1;stroke:none;stroke-width:2.465;stroke-linejoin:round;paint-order:markers stroke fill"
       d="M 76.263045,1.4211019 A 74.842102,74.842102 0 0 0 1.4211019,76.263045 74.842102,74.842102 0 0 0 76.263045,151.10551 74.842102,74.842102 0 0 0 147.5667,99.00481 c -9.73129,4.22869 -14.67206,8.55032 -43.11933,8.75812 0.23547,4.73685 4.1393,9.71085 7.81555,14.4477 0,0 -28.517636,-15.92157 -41.210409,-16.57883 -12.692773,-0.65726 -26.435613,-8.254651 -41.210405,-17.052711 0,0 9.126487,-2.968521 9.47384,-7.105509 0.347353,-4.136988 -8.999967,-9.473324 -8.999967,-9.473324 14.11685,-12.982549 21.137813,-25.111725 56.60533,-28.421521 l 38.604881,-12.7894 c -3.90419,6.32601 -11.51696,13.441223 -7.57887,17.526579 l 32.58199,18.679997 A 74.842102,74.842102 0 0 0 76.263045,1.4211019 Z m 35.554935,60.0123571 -2.97398,0.04031 c 8.36479,4.203934 4.1998,5.698489 0.52555,8.135938 -0.58891,-0.542922 -1.36113,-1.060032 -2.32595,-1.53479 l -2.97347,0.04082 c 8.95252,4.499311 3.55266,5.89469 -0.23719,8.664587 l 3.34966,0.257349 c 3.4756,-1.909867 4.60847,-4.520269 2.78278,-6.794934 l 1.99109,0.152962 c 4.65999,-2.560699 5.10873,-6.380257 -0.13849,-8.962244 z m -55.467931,0.608232 c -2.023645,-0.01314 -3.350107,3.003131 -3.479374,5.221387 -0.133436,2.289812 1.521499,5.967855 3.789432,5.921085 2.267934,-0.04677 3.266047,-3.56419 3.316077,-5.684407 0.05003,-2.120217 -1.293371,-5.227792 -3.428214,-5.447213 -0.06671,-0.0069 -0.132642,-0.01043 -0.197921,-0.01085 z m 67.283751,13.907678 -2.97398,0.04082 c 8.95252,4.499311 3.55317,5.894173 -0.23668,8.66407 l 3.34967,0.257349 c 0.58075,-0.31913 1.09599,-0.657905 1.54306,-1.011308 7.54153,4.095002 2.41472,5.487227 -1.22629,8.14834 l 3.34967,0.257349 c 4.65999,-2.560699 5.10821,-6.380257 -0.13901,-8.962244 l -1.36788,0.0186 c 2.46946,-2.394231 1.96928,-5.31292 -2.29856,-7.412985 z m -4.7284,12.643673 -28.972388,0.837158 21.771278,1.33997 c -3.64678,4.622833 -5.83491,7.396306 -5.52679,11.55537 l -26.29297,-8.205704 28.80548,12.225094 c 1.65545,-8.754041 4.09728,-14.353041 10.21539,-17.751888 z" />
  </g>
</svg>
