<?xml version="1.0" encoding="UTF-8" standalone="no"?>
<!-- Created with Inkscape (http://www.inkscape.org/) -->

<svg
   width="81.72039mm"
   height="81.269974mm"
   viewBox="0 0 81.72039 81.269974"
   version="1.1"
   id="svg1"
   xmlns="http://www.w3.org/2000/svg"
   xmlns:svg="http://www.w3.org/2000/svg">
  <defs
     id="defs1" />
  <g
     id="layer3"
     style="display:inline"
     transform="translate(-3.584509,-3.5360649)">
    <path
       id="rect5-6"
       style="display:inline;opacity:1;stroke-width:0.264583"
       d="M 37.310901,3.5361152 C 22.531521,3.5287866 7.6246471,4.3224477 5.8616577,5.9385525 c -3.5259787,3.2322096 -2.5036908,39.0291745 0,41.5328655 0.7295049,0.729505 6.0396323,1.317792 13.2772253,1.702222 h 0.0041 c 5.888617,-0.0051 46.815729,-0.08283 48.575329,-1.25057 1.530726,-1.015852 1.977856,-6.688224 2.093412,-8.837186 -0.016,-8.59e-4 -0.03204,-0.0017 -0.04806,-0.0026 C 70.671678,27.537003 69.821234,8.2549585 67.993783,5.9385525 66.741937,4.3517618 52.090281,3.5434437 37.310901,3.5361152 Z M 71.938245,39.211457 c -0.198928,2.60257 -0.833185,8.953794 -2.359546,10.40505 -1.811345,1.722215 -45.18961,1.801839 -50.596912,1.805058 -0.699975,11.794917 0.323161,29.450065 2.054655,31.181559 2.503691,2.503691 58.958545,3.341054 62.132125,0 3.17358,-3.341054 2.50369,-38.3598 0,-41.533382 -0.660764,-0.837559 -5.054783,-1.457923 -11.230322,-1.858285 z" />
  </g>
</svg>
