<?xml version="1.0" encoding="UTF-8" standalone="no"?>
<!-- Created with Inkscape (http://www.inkscape.org/) -->

<svg
   width="120mm"
   height="120mm"
   viewBox="0 0 120 120"
   version="1.1"
   id="svg1"
   xml:space="preserve"
   xmlns="http://www.w3.org/2000/svg"
   xmlns:svg="http://www.w3.org/2000/svg"><defs
     id="defs1" /><g
     id="layer3"
     style="display:inline"
     transform="translate(-40.238716,-35.592277)"><path
       id="path1"
       style="display:inline;fill:#ffffff;stroke-width:1.91473;stroke-linejoin:round;paint-order:markers stroke fill"
       d="M 100.23867,36.533305 A 59.058975,59.058975 0 0 0 41.179744,95.592232 59.058975,59.058975 0 0 0 100.23867,154.65116 59.058975,59.058975 0 0 0 159.2976,95.592232 59.058975,59.058975 0 0 0 100.23867,36.533305 Z m 20.9119,13.275675 c 0,0 0.55114,1.809173 0.86403,3.223576 -2.58395,3.293403 -6.70393,4.224838 -10.61382,4.307748 -0.66857,-2.358952 -1.02164,-4.124297 -1.02164,-4.124297 2.69465,-1.647402 6.0378,-2.924751 10.77143,-3.407027 z m -0.46612,0.57981 -2.35954,0.07183 0.83612,0.197921 c -1.91898,1.973949 -4.09686,2.155994 -6.75618,2.264978 l 0.34675,-0.588078 c -1.55963,1.06371 -1.56993,1.09244 -1.56993,1.09244 4.63682,0.11626 5.95946,-0.912978 9.50278,-3.039091 z m 5.02347,2.802413 c 7.44038,0.367726 10.21166,3.568016 10.14253,3.678845 -10.33528,-0.188096 -23.70968,-2.689498 -10.48101,35.908403 0.53125,1.550027 -0.46247,2.997388 -3.17655,2.169376 -2.71407,-0.828012 -1.67675,-9.363821 -4.88084,-12.24163 -3.20408,-2.877809 -12.19564,-3.404443 -12.19564,-3.404443 -1.55783,-9.698513 -0.63698,-17.82707 6.15466,-21.711337 4.3491,1.026145 10.24602,-2.287433 10.95696,-4.366141 1.25882,-0.08035 2.41698,-0.08561 3.47989,-0.03307 z m 5.51956,3.93516 c 1.21899,-0.02104 2.55836,0.01313 4.02921,0.153479 4.26027,2.484842 8.26909,6.764718 11.52384,13.443107 -3.50713,7.841006 -9.95308,8.964437 -16.27032,10.382312 l 1.76216,10.003524 c 9.47738,-2.075036 17.95493,9.385515 13.08086,10.194205 0,0 -3.42133,1.57274 -4.88549,0.81029 -1.77084,-0.92214 -2.58485,-5.403287 -2.58485,-5.403287 l -3.10731,1.997295 c 6.61286,21.990152 6.85586,27.095772 -13.40797,36.632902 5.34432,0.70444 17.63244,-0.68234 14.47974,5.53093 0,0 -34.64126,-0.36416 -37.568766,0.0475 -3.386833,0.47629 4.061246,-8.11475 4.061246,-8.11475 C 98.866366,118.57685 82.393211,105.75988 69.881351,97.196269 61.091696,91.180286 47.99606,96.27884 47.570051,79.788546 46.773108,48.939855 98.304256,68.48776 103.48809,95.596883 c 1.70496,-5.032338 3.51247,-9.927996 2.98224,-15.33033 0,0 7.13504,0.389919 10.14409,3.136759 3.00906,2.74684 2.28824,11.784326 5.26892,12.784233 2.98069,0.999907 4.17013,-0.246697 4.33876,-2.55695 0.16862,-2.310253 -15.13133,-36.156716 5.00538,-36.504232 z" /></g></svg>
