<?xml version="1.0" encoding="UTF-8" standalone="no"?>
<!-- Created with Inkscape (http://www.inkscape.org/) -->

<svg
   width="74.068604mm"
   height="73.381821mm"
   viewBox="0 0 74.068603 73.381821"
   version="1.1"
   id="svg1"
   xmlns="http://www.w3.org/2000/svg"
   xmlns:svg="http://www.w3.org/2000/svg">
  <defs
     id="defs1" />
  <g
     id="layer7"
     style="display:inline;fill:#000000"
     transform="translate(-6.9015523,-7.4802187)">
    <path
       id="rect8"
       style="display:inline;fill:#000000;stroke-width:0.264583"
       d="M 43.916182,7.4842977 C 26.966271,7.414403 10.059319,8.2400335 9.0433757,10.170955 c -2.0318861,3.861843 -3.5769641,65.196761 0,68.328646 3.5769643,3.131885 67.2573283,3.167893 70.0034793,0 2.746151,-3.167893 2.375981,-65.02596 0,-68.328646 C 77.858864,8.5196124 60.866094,7.5541924 43.916182,7.4842977 Z M 57.315881,22.371244 c 0.986842,0 1.973701,0.158084 2.960543,0.473873 -0.468878,11.80143 -1.014802,23.710627 -0.237195,35.200436 -1.652439,0.619389 -2.68248,0.915455 -4.647778,-0.02946 0.627989,-11.519139 -0.08584,-23.336189 -1.036112,-35.17098 0.986842,-0.315789 1.9737,-0.473873 2.960542,-0.473873 z m -28.492834,0.54467 c 5.993316,-0.175963 11.310584,3.319384 11.552266,10.083105 0.15796,4.420683 -2.610311,7.362204 -8.388118,14.715898 -2.144162,2.728979 -1.339453,10.773503 -1.339453,10.773503 -1.395605,0.297433 -2.79122,0.614896 -4.186825,-0.01034 0,0 -1.144108,-7.486617 0,-10.763167 1.256045,-3.597119 10.441009,-9.458813 9.518282,-15.706018 -0.591844,-4.007003 -3.971196,-5.740799 -7.708573,-5.46995 -3.015493,0.218534 -5.072745,5.218635 -4.824512,8.610843 -1.370921,0.275419 -2.628813,0.324505 -3.68453,-0.03049 -0.05957,-4.480265 1.470306,-10.434513 4.858102,-11.490254 1.401032,-0.436605 2.820288,-0.672528 4.203361,-0.713135 z m -2.542481,37.963574 c 0.01687,-0.0014 0.03533,0.01737 0.05529,0.05891 0.31941,0.664664 4.557196,0.407044 4.585767,0 0.02857,-0.407044 0.17988,4.503761 0,4.722709 -0.17988,0.218948 -4.351465,0.21646 -4.585767,0 -0.219656,-0.20293 -0.308271,-4.76042 -0.05529,-4.78162 z m 29.196151,0.146761 c 0.01687,-0.0014 0.03533,0.01737 0.05529,0.05891 0.31941,0.664664 4.557196,0.407044 4.585767,0 0.02857,-0.407044 0.17988,4.503245 0,4.722193 -0.17988,0.218948 -4.351465,0.21646 -4.585767,0 -0.219656,-0.202931 -0.308271,-4.759904 -0.05529,-4.781104 z" />
  </g>
</svg>
