<?xml version="1.0" encoding="UTF-8" standalone="no"?>
<!-- Created with Inkscape (http://www.inkscape.org/) -->

<svg
   width="102.68029mm"
   height="97.158257mm"
   viewBox="0 0 102.68029 97.158257"
   version="1.1"
   id="svg1"
   xml:space="preserve"
   xmlns="http://www.w3.org/2000/svg"
   xmlns:svg="http://www.w3.org/2000/svg"><defs
     id="defs1" /><g
     id="layer3"
     style="display:inline"
     transform="translate(-48.898571,-47.013151)"><path
       id="path2"
       style="opacity:1;fill:#000000;fill-opacity:1;stroke:#ffffff;stroke-width:2.465;stroke-linejoin:round;stroke-dasharray:none;stroke-opacity:1;paint-order:markers stroke fill"
       d="m 124.21857,50.027887 c -4.73363,0.482276 -8.07679,1.759625 -10.77144,3.407027 0,0 -0.0343,1.300472 0.63426,3.659424 3.90989,-0.08291 8.57222,-0.936865 11.15617,-4.230268 -0.31289,-1.414403 -1.01899,-2.836183 -1.01899,-2.836183 z m -0.46612,0.57981 c -3.18854,2.55692 -4.86568,3.602572 -9.8708,3.039091 0,0 0.37832,-0.02873 1.93795,-1.09244 l -0.34675,0.588078 c 2.56723,-0.274752 4.67524,-0.582556 6.75618,-2.264978 l -0.83613,-0.197921 z m 1.85348,2.758007 c -0.40176,2.439417 -6.27902,6.408657 -11.4993,4.366141 -6.79164,3.884267 -7.24741,11.548288 -5.68958,21.246801 0,0 9.06882,0.44882 12.2729,3.326629 3.20409,2.877809 2.86408,10.019001 4.18354,11.389364 1.96814,2.044078 3.3204,-0.541871 2.78915,-2.091898 -13.54397,-36.133178 1.68975,-37.94934 11.18165,-35.023474 0.079,-0.126662 -3.1678,-3.856353 -13.23836,-3.213563 z m 8.68954,3.979566 c -20.13671,0.347516 -4.83675,34.193979 -5.00537,36.504232 -0.16863,2.310253 -1.51303,2.859549 -4.49372,1.859642 -2.98068,-0.999907 -2.10491,-9.340085 -5.11397,-12.086925 -3.00905,-2.74684 -10.1442,-3.136656 -10.1442,-3.136656 0.53023,5.402334 -1.27717,10.297889 -2.98213,15.330227 -5.18383,-27.109123 -56.714974,-46.657028 -55.918031,-15.808337 0.426009,16.490294 13.521644,11.39174 22.311299,17.407723 12.51186,8.563604 28.985012,21.380584 32.458482,35.607644 0,0 -7.448083,8.59104 -4.06125,8.11475 2.92751,-0.4117 37.56884,-0.0475 37.56884,-0.0475 3.1527,-6.21327 -9.13549,-4.82651 -14.47981,-5.53095 20.26383,-9.53713 20.02083,-14.64275 13.40797,-36.632897 l 3.1073,-1.997294 c 0,0 0.81402,4.481141 2.58486,5.403281 1.46416,0.76245 4.88549,-0.81028 4.88549,-0.81028 4.87407,-0.80869 -3.60348,-12.269244 -13.08086,-10.194208 l -1.76216,-10.003524 c 6.31724,-1.417875 12.76319,-2.541306 16.27032,-10.382312 -3.25475,-6.678389 -7.26357,-10.958265 -11.52384,-13.443107 -1.47085,-0.140346 -2.81023,-0.174516 -4.02922,-0.153479 z" /></g></svg>
