<?xml version="1.0" encoding="UTF-8" standalone="no"?>
<!-- Created with Inkscape (http://www.inkscape.org/) -->

<svg
   width="75.720787mm"
   height="70.025658mm"
   viewBox="0 0 75.720787 70.025658"
   version="1.1"
   id="svg1"
   xmlns="http://www.w3.org/2000/svg"
   xmlns:svg="http://www.w3.org/2000/svg">
  <defs
     id="defs1" />
  <g
     id="layer2"
     style="display:inline"
     transform="translate(-6.116548,-12.37086)">
    <circle
       style="fill:#000000;stroke-width:0.264583"
       id="path3"
       cx="27.046833"
       cy="41.282009"
       r="13.481549" />
    <circle
       style="fill:#000000;stroke-width:0.264583"
       id="path3-8"
       cx="60.116848"
       cy="25.852409"
       r="13.481549" />
    <path
       id="path4"
       style="fill:#000000;stroke-width:0.264583"
       d="m 59.245479,37.631295 c -10.314554,0.09862 -15.586567,7.975884 -18.231962,17.082678 3.338114,3.020352 10.496432,9.174599 9.627836,27.443286 l 30.949532,-0.186035 c 0,0 4.228559,-44.594009 -22.345406,-44.339929 z M 26.891382,53.373486 C 2.3243577,53.526347 6.3639526,82.396521 6.3639526,82.396521 L 48.48903,82.23219 C 49.863664,64.714347 40.904908,56.975663 39.768115,56.607914 h -5.17e-4 l 10e-4,0.234611 c -0.164489,-0.202882 -0.15073,-0.282848 -10e-4,-0.234611 l -5.16e-4,-0.08785 c -3.174519,-1.958748 -7.361915,-3.180885 -12.8757,-3.146578 z" />
  </g>
</svg>
